<?xml version="1.0" encoding="utf-8"?>
<!-- Generator: Adobe Illustrator 24.2.0, SVG Export Plug-In . SVG Version: 6.00 Build 0)  -->
<svg version="1.1" id="图层_1" xmlns="http://www.w3.org/2000/svg" xmlns:xlink="http://www.w3.org/1999/xlink" x="0px" y="0px"
	 viewBox="0 0 360 360" style="enable-background:new 0 0 360 360;" xml:space="preserve">
<style type="text/css">
	.st0{clip-path:url(#SVGID_2_);}
	.st1{fill:#FFFFFF;}
	.st2{fill:#000044;}
	.st3{fill:none;stroke:#000044;stroke-width:10;stroke-linecap:round;stroke-linejoin:round;stroke-miterlimit:10;}
</style>
<g>
	<defs>
		<rect id="SVGID_1_" y="0" width="360" height="360"/>
	</defs>
	<clipPath id="SVGID_2_">
		<use xlink:href="#SVGID_1_"  style="overflow:visible;"/>
	</clipPath>
	<g class="st0">
		<rect class="st1" width="360" height="360"/>
		<path class="st2" d="M360,0v165.64c-11.89-17.38-30.81-30.44-53.28-35.49c-16.07-16.57-41.16-37.41-76.43-50.37
			c-8.51-3.13-16.71-5.47-24.45-7.21c-3.61-17.94-7.23-35.89-10.84-53.84c-9.52,18.4-19.04,36.8-28.56,55.19
			c-3.26,0.65-6.52,1.29-9.78,1.93c-9.88-14.92-19.76-29.83-29.64-44.75c-5.45,19.1-10.89,38.2-16.34,57.3
			c-3.36,1.07-53.84,18.13-67.41,69.96c-12.25,46.77,15.64,83.37,19.74,88.57c11.26,14.26,24.11,22.52,32.41,26.97
			c-0.45,8.64-0.55,17.91-0.12,27.74c0.97,22.24,4.41,41.89,8.56,58.36H0V0H360z"/>
		<path class="st3" d="M104.1,360.96c-0.08-0.32-0.16-0.64-0.24-0.96c-4.15-16.47-7.59-36.12-8.56-58.36
			c-0.43-9.83-0.33-19.1,0.12-27.74c-8.3-4.45-21.15-12.71-32.41-26.97c-4.1-5.2-31.99-41.8-19.74-88.57
			c13.57-51.83,64.05-68.89,67.41-69.96c5.45-19.1,10.89-38.2,16.34-57.3c9.88,14.92,19.76,29.83,29.64,44.75
			c3.26-0.64,6.52-1.28,9.78-1.93c9.52-18.39,19.04-36.79,28.56-55.19c3.61,17.95,7.23,35.9,10.84,53.84
			c7.74,1.74,15.94,4.08,24.45,7.21c35.27,12.96,60.36,33.8,76.43,50.37c22.47,5.05,41.39,18.11,53.28,35.49
			c6.6,9.62,11.03,20.57,12.72,32.21c3.17,21.78-4.14,40.06-12.72,53.3c-8.19,12.64-17.54,20.7-20.03,22.84
			c-8.84,7.61-24.2,20.76-46.07,19.27c-22.68-1.55-36.88-18.14-40.08-22.08c-2.38-0.46-13.52-2.91-20.03-13.25
			c-1.37-2.18-5.92-9.41-3.95-17.21c2.38-9.4,13.48-16.59,27.29-16.5c-1.91-3.54-4.09-8.86-4.44-15.52
			c-0.22-4.18-0.76-14.38,6.56-21.93c4.74-4.88,10.36-6.17,12.09-6.51c5.54-1.06,15.26-0.77,18.39,4.61
			c3.35,5.74-3.84,12.03-0.65,20.17c1.66,4.23,5.28,6.81,8.12,8.33"/>
		<path class="st2" d="M179.76,246.73c4.8,1.09,6.05,12.9,5.32,20.65c-0.32,3.36-1.07,11.36-5.12,12.56
			c-2.05,0.61-4.2-0.75-7.35-2.71c-3.58-2.24-6-4.81-7.47-6.63c-1.43,2.34-3.9,5.79-7.9,8.94c-3.01,2.37-4.93,3.89-7.18,3.58
			c-4.68-0.63-7.02-8.65-8.06-12.37c-1.04-3.72-4.08-14.63,0.35-17.62c2.94-1.99,7.89,0.08,13.25,2.33
			c3.58,1.51,6.32,3.26,8.13,4.55c1.78-2.74,4.85-6.77,9.75-10.37C176.52,247.43,178.09,246.35,179.76,246.73z"/>
		<path class="st3" d="M136.09,164.9c-6.24-8.18-15.51-12.25-23.1-9.97c-8.26,2.48-11.75,11.61-13.58,16.62
			c-2.65,7.28-2.55,13.91-2.05,18.26"/>
		<path class="st3" d="M129.34,196.23c6.02,0.84,15.84,1.46,27.41-1.34c10.81-2.61,18.84-7.15,23.74-10.45"/>
		<path class="st3" d="M162.06,160.38c0.75-1.47,6.19-11.81,18.53-14.68c14.08-3.28,24.53,6.1,25.38,6.9"/>
		<line class="st3" x1="147.86" y1="181.81" x2="147.86" y2="181.81"/>
	</g>
</g>
</svg>
